<svg fill="white" xmlns="http://www.w3.org/2000/svg" xmlns:xlink="http://www.w3.org/1999/xlink" version="1.1" id="katman_1" x="0px" y="0px" width="841.89px" height="1190.55px" viewBox="0 0 841.89 1190.55" style="enable-background:new 0 0 841.89 1190.55;" xml:space="preserve">
<g>
	<path style="fill-rule:evenodd;clip-rule:evenodd;" d="M409.896,300.55c7.272,0,14.544,0,21.815,0   c0.527,0.359,1.138,0.258,1.712,0.274c7.855,0.231,15.675,0.928,23.47,1.869c10.896,1.315,21.687,3.279,32.365,5.828   c32.603,7.785,63.009,20.746,91.165,38.924c31.764,20.506,58.655,46.162,80.591,76.951c22.797,31.998,38.581,67.169,47.301,105.496   c2.044,8.982,3.678,18.041,4.872,27.171c0.891,6.809,1.497,13.648,1.908,20.508c0.144,2.387-0.07,4.812,0.512,7.17   c0,7.075,0,14.152,0,21.226c-0.265,0.65-0.268,1.338-0.286,2.021c-0.194,7.02-0.757,14.016-1.563,20.986   c-1.395,12.072-3.525,24.02-6.383,35.84c-7.794,32.246-20.692,62.305-38.674,90.164c-20.555,31.85-46.293,58.795-77.187,80.758   c-31.893,22.674-66.932,38.4-105.107,47.086c-9.364,2.133-18.805,3.824-28.336,5.014c-6.429,0.805-12.872,1.369-19.336,1.799   c-2.438,0.16-4.911-0.061-7.319,0.521c-7.075,0-14.15,0-21.226,0c-0.593-0.311-1.245-0.258-1.877-0.275   c-6.137-0.152-12.254-0.643-18.355-1.271c-10.385-1.068-20.677-2.76-30.893-4.924c-25.531-5.414-49.911-14.088-73.077-26.076   c-40.197-20.801-73.952-49.295-101.138-85.492c-22.533-30-38.714-63.135-48.587-99.35c-3.301-12.109-5.772-24.387-7.532-36.801   c-1.06-7.477-1.757-14.998-2.205-22.545c-0.147-2.482,0.035-5-0.526-7.455c0-7.074,0-14.151,0-21.226   c0.092-0.622,0.243-1.243,0.268-1.868c0.567-14.528,2.264-28.917,4.99-43.204c3.998-20.951,10.162-41.227,18.648-60.785   c21.205-48.866,53.252-89.166,96.023-120.886c28.92-21.448,60.803-36.93,95.477-46.651c11.75-3.294,23.668-5.79,35.737-7.595   c8.493-1.272,17.025-2.123,25.596-2.676C405.123,300.921,407.543,301.144,409.896,300.55L409.896,300.55z M653.534,624.724   c4.226,0,8.448-0.029,12.674,0.012c2.372,0.023,2.184-0.5,1.852,2.119c-1.112,8.797-2.686,17.518-4.757,26.141   c-8.361,34.805-23.442,66.402-45.279,94.771c-1.433,1.861-1.426,1.863-3.053,0.238c-6.113-6.113-12.209-12.244-18.36-18.318   c-0.813-0.803-0.793-1.27-0.13-2.15c19.234-25.613,32.246-54.092,39.16-85.355c1.142-5.16,2.147-10.357,2.754-15.613   c0.161-1.402,0.654-1.93,2.174-1.887C644.887,624.804,649.212,624.724,653.534,624.724L653.534,624.724z M450.193,828.056   c0-4.371,0.074-8.744-0.044-13.113c-0.039-1.432,0.493-1.818,1.756-1.982c7.582-0.984,15.058-2.516,22.471-4.381   c28.691-7.217,54.85-19.74,78.51-37.488c1.026-0.77,1.514-0.684,2.378,0.193c6.243,6.328,12.537,12.607,18.852,18.865   c0.774,0.766,0.857,1.094-0.09,1.828c-27.693,21.455-58.504,36.502-92.464,45.105c-9.598,2.43-19.318,4.199-29.122,5.541   c-2.249,0.309-2.246,0.32-2.246-1.895C450.191,836.505,450.193,832.28,450.193,828.056L450.193,828.056z M391.413,828.034   c0,4.52-0.02,9.039,0.017,13.557c0.008,0.934-0.157,1.258-1.214,1.131c-8.663-1.043-17.24-2.57-25.73-4.557   c-29.984-7.01-57.763-19.1-83.293-36.332c-4.68-3.158-9.23-6.492-13.706-9.936c-0.785-0.604-0.829-0.92-0.116-1.627   c6.452-6.398,12.878-12.822,19.273-19.277c0.689-0.695,1.098-0.617,1.815-0.076c23.8,17.904,50.152,30.479,79.031,37.744   c7.267,1.83,14.604,3.328,22.042,4.273c1.383,0.176,1.974,0.568,1.926,2.135C391.328,819.388,391.413,823.712,391.413,828.034   L391.413,828.034z M653.472,565.981c-4.322,0-8.646-0.076-12.966,0.042c-1.457,0.039-1.924-0.438-2.104-1.801   c-1.293-9.819-3.414-19.466-6.121-28.99c-7.453-26.217-19.395-50.205-35.755-71.994c-0.7-0.932-0.727-1.421,0.129-2.266   c6.325-6.247,12.604-12.542,18.867-18.851c0.745-0.749,1.114-1.017,1.93,0.036c21.432,27.654,36.444,58.434,45.063,92.335   c2.451,9.642,4.235,19.413,5.563,29.271c0.021,0.146,0.028,0.293,0.042,0.439c0.156,1.777,0.156,1.778-1.68,1.779   C662.117,565.981,657.794,565.981,653.472,565.981L653.472,565.981z M188.061,624.724c4.323,0,8.647,0.078,12.967-0.043   c1.507-0.039,2.003,0.469,2.184,1.875c1.144,8.947,3.023,17.758,5.402,26.451c7.417,27.107,19.531,51.93,36.423,74.4   c0.733,0.977,0.791,1.475-0.133,2.383c-6.303,6.201-12.555,12.453-18.756,18.756c-0.977,0.992-1.349,0.834-2.13-0.174   c-21.344-27.592-36.308-58.289-44.913-92.086c-2.468-9.689-4.257-19.51-5.583-29.418c-0.046-0.34,0.011-0.701-0.079-1.025   c-0.274-0.996,0.211-1.137,1.061-1.133C179.023,624.739,183.542,624.724,188.061,624.724L188.061,624.724z M450.193,362.72   c0-4.47,0.039-8.94-0.028-13.409c-0.017-1.186,0.292-1.466,1.47-1.314c8.7,1.121,17.32,2.648,25.861,4.65   c33.064,7.747,63.279,21.686,90.697,41.705c2.061,1.504,4.046,3.113,6.112,4.61c0.694,0.502,0.604,0.791,0.064,1.326   c-6.509,6.48-13.014,12.964-19.471,19.495c-0.778,0.788-1.194,0.412-1.822-0.061c-12.939-9.74-26.778-17.965-41.537-24.64   c-16.715-7.561-34.084-13.007-52.165-16.158c-2.508-0.437-5.021-0.844-7.543-1.193c-1.174-0.163-1.715-0.529-1.68-1.898   C450.261,371.464,450.193,367.092,450.193,362.72L450.193,362.72z M188.077,565.981c-4.224,0-8.449,0.029-12.673-0.011   c-2.413-0.022-2.183,0.462-1.857-2.115c1.105-8.798,2.675-17.521,4.748-26.144c8.369-34.8,23.435-66.405,45.282-94.768   c1.438-1.867,1.433-1.872,3.054-0.25c6.113,6.112,12.209,12.243,18.36,18.317c0.807,0.797,0.809,1.261,0.14,2.152   c-19.245,25.607-32.252,54.088-39.169,85.351c-1.143,5.163-2.145,10.359-2.75,15.617c-0.16,1.392-0.639,1.936-2.167,1.892   C196.724,565.9,192.4,565.981,188.077,565.981L188.077,565.981z M391.413,362.647c0,4.372-0.075,8.745,0.044,13.113   c0.038,1.433-0.49,1.824-1.757,1.982c-7.832,0.979-15.552,2.568-23.187,4.531c-28.395,7.301-54.354,19.708-77.793,37.336   c-1.027,0.773-1.513,0.687-2.377-0.19c-6.209-6.293-12.463-12.543-18.753-18.756c-0.878-0.868-0.921-1.234,0.107-2.03   c26.693-20.67,56.33-35.385,88.937-44.131c10.749-2.883,21.656-4.958,32.681-6.438c0.242-0.032,0.5,0.009,0.733-0.054   c1.106-0.302,1.41,0.092,1.393,1.227C391.375,353.708,391.413,358.178,391.413,362.647L391.413,362.647z M439.955,732.489   c0,15.33-0.018,30.66,0.032,45.988c0.005,1.369-0.374,1.701-1.708,1.693c-11.596-0.051-23.191-0.055-34.786,0.004   c-1.436,0.006-1.886-0.275-1.883-1.826c0.053-30.51,0.029-61.021,0.072-91.533c0.002-1.434-0.373-1.926-1.822-2.26   c-9.863-2.277-19.108-6.109-27.659-11.547c-0.979-0.621-1.484-0.553-2.298,0.266c-21.653,21.703-43.345,43.369-64.991,65.082   c-1.007,1.01-1.472,0.988-2.46-0.012c-8.223-8.314-16.495-16.578-24.802-24.811c-0.88-0.871-0.851-1.283,0.008-2.139   c21.704-21.652,43.371-43.346,65.082-64.99c0.955-0.953,0.992-1.523,0.282-2.65c-5.447-8.656-9.325-17.98-11.529-27.975   c-0.248-1.121-0.787-1.297-1.798-1.295c-30.609,0.023-61.219,0.01-91.829,0.049c-1.426,0.002-1.902-0.256-1.892-1.816   c0.077-11.645,0.065-23.29,0.009-34.933c-0.006-1.326,0.369-1.613,1.646-1.611c30.511,0.036,61.022,0.015,91.534,0.067   c1.554,0.003,2.106-0.39,2.465-1.944c2.28-9.864,6.126-19.103,11.581-27.644c0.615-0.963,0.417-1.448-0.311-2.174   c-21.697-21.661-43.367-43.351-65.076-64.999c-0.976-0.974-1.065-1.439-0.03-2.461c8.284-8.184,16.511-16.424,24.708-24.694   c0.912-0.921,1.378-1.009,2.349-0.035c21.613,21.675,43.271,43.305,64.886,64.979c0.93,0.933,1.488,1.044,2.644,0.315   c8.654-5.45,17.978-9.327,27.972-11.54c1.082-0.239,1.324-0.729,1.323-1.774c-0.028-30.608-0.025-61.218-0.019-91.829   c0-2.073-0.271-1.873,1.901-1.873c11.547-0.006,23.094,0.022,34.641-0.037c1.4-0.007,1.796,0.312,1.794,1.761   c-0.046,30.56-0.022,61.121-0.071,91.682c-0.002,1.42,0.403,1.838,1.767,2.154c9.863,2.282,19.113,6.102,27.666,11.534   c1.042,0.662,1.563,0.561,2.411-0.289c21.618-21.672,43.278-43.301,64.885-64.982c1.067-1.071,1.554-0.993,2.565,0.03   c8.188,8.28,16.422,16.515,24.702,24.702c0.953,0.943,0.854,1.368-0.026,2.247c-21.705,21.653-43.371,43.345-65.08,64.993   c-0.916,0.913-0.916,1.48-0.255,2.529c5.382,8.523,9.202,17.721,11.453,27.54c0.34,1.481,0.875,1.802,2.278,1.8   c30.463-0.039,60.925-0.029,91.387-0.029c1.918,0,1.918,0,1.918,1.865c0.001,11.595-0.025,23.191,0.034,34.787   c0.008,1.393-0.415,1.678-1.726,1.676c-30.561-0.035-61.121-0.016-91.682-0.061c-1.382-0.002-1.867,0.35-2.186,1.73   c-2.262,9.816-6.059,19.023-11.444,27.545c-0.705,1.115-0.694,1.689,0.269,2.65c21.679,21.609,43.31,43.268,64.979,64.887   c0.909,0.906,1.018,1.375,0.03,2.352c-8.278,8.186-16.512,16.422-24.7,24.699c-0.972,0.98-1.435,1.063-2.461,0.035   c-21.61-21.68-43.269-43.311-64.887-64.98c-0.873-0.875-1.431-1-2.522-0.313c-8.696,5.477-18.062,9.381-28.107,11.592   c-1.038,0.23-1.255,0.693-1.253,1.688C439.966,701.733,439.955,717.112,439.955,732.489L439.955,732.489z M684.295,595.297   L684.295,595.297c-0.207-145.502-117.534-262.6-261.927-263.405c-146.556-0.816-265.005,117.571-265.03,263.364   c-0.024,145.719,117.792,263.208,262.778,263.557C566.081,859.165,684.19,741.101,684.295,595.297L684.295,595.297z"/>
</g>
</svg>