<svg fill="white" xmlns="http://www.w3.org/2000/svg" xmlns:xlink="http://www.w3.org/1999/xlink"
     version="1.1" id="katman_1"
     x="0px" y="0px" width="841.89px" height="1190.55px" viewBox="0 0 841.89 1190.55"
     style="enable-background:new 0 0 841.89 1190.55;" xml:space="preserve">
        <g>
          <path style="fill-rule:evenodd;clip-rule:evenodd;"
                d="M574.488,317.739c47.951,38.7,81.723,85.574,92.883,147.886   c11.176,62.382-10.186,118.031-31.26,174.402c56.459-47.071,60.098-110.661,57.213-177.203   c24.84,40.505,23.611,85.214,20.881,129.848c-2.826,46.062-26.098,84.661-51.988,126.476c16.867-2.904,21.406-13.154,27.279-21.484   c6.248-8.877,12.031-18.066,21.252-32.008C684.4,765.833,572.537,877.575,416.777,875.22   c-129.111-1.951-267.216-101.117-284.822-206.006c13.441,17.42,20.564,37.588,41.814,47.486   c-20.973-38.469-44.326-76.309-46.41-120.973c-2.072-44.494-4.968-89.533,18.304-132.237   c-2.538,66.098,3.502,129.142,59.249,175.92c-25.214-55.443-40.398-112.442-31.593-173.367   c8.993-62.201,44.333-108.52,90.397-149.494c3.893,9.636-3.66,13.683-6.649,19.103c-28.67,52.044-20.583,103.676,10.004,149.481   c24.841,37.215,28.298,68.768,13.361,111.765c-32.113,92.434,8.058,188.273,88.723,230.572   c33.762,17.703,36.471,16.227,37.453-20.582c0.526-19.967,0.868-39.936,1.128-59.908c-1.452-0.951-2.823-2.057-4.098-3.297   c-9.564,11.115-19.642,22.148-30.12,32.98l-0.168,0.164l0.115-0.205c8.395-14.045,16.689-27.211,25.015-39.59   c-2.122-3.646-3.627-7.84-4.34-12.365c-16.765-1.07-33.87-2.93-51.071-5.492l-0.233-0.035l0.233-0.033   c17.156-2.557,34.215-4.41,50.938-5.484c0.862-6.51,3.36-12.371,6.977-16.973c-10.454-14.707-19.729-29.264-27.558-43.391   l-0.076-0.158l0.131,0.117c12.104,11.326,23.579,23.563,34.702,36.893l0.169-0.107c0.14-13.729,0.29-27.461,0.484-41.195   c5.547-91.545,6.488-180.082,12.789-268.492l8.066,269.24c0.167,12.91,0.225,25.824,0.256,38.738   c1.199,0.51,2.358,1.117,3.472,1.814c11.125-13.328,22.6-25.563,34.703-36.891l0.132-0.117l-0.077,0.158   c-7.828,14.127-17.103,28.684-27.558,43.391c3.506,4.461,5.96,10.102,6.894,16.369c17.939,0.848,35.088,2.836,51.084,6.088   l0.171,0.033l-0.171,0.035c-16.04,3.262-33.239,5.25-51.231,6.094c-0.748,4.295-2.215,8.277-4.242,11.764   c8.326,12.379,16.62,25.545,25.015,39.59l0.116,0.205l-0.169-0.164c-10.478-10.832-20.557-21.865-30.12-32.98   c-2.298,2.238-4.911,4.035-7.747,5.283c0.186,15.742,0.521,31.467,1.163,47.164c2.047,51.055,3.67,51.943,48.506,26.387   c78.409-44.686,114.134-149.938,77.47-237.033c-12.988-30.866-12.686-54.574,6.703-83.331   c26.521-39.337,46.883-82.945,32.979-133.458C592.08,350.687,582.365,334.713,574.488,317.739L574.488,317.739z"/>
        </g>
      </svg>